<mxfile host="app.diagrams.net" modified="2024-01-24T02:33:54.181Z" agent="Mozilla/5.0 (Macintosh; Intel Mac OS X 10_15_7) AppleWebKit/537.36 (KHTML, like Gecko) Chrome/120.0.0.0 Safari/537.36" version="23.0.0" etag="IIy5Uh44rD4U_8sbZYC8" type="github">
  <diagram name="第 1 页" id="M-bujQQklK8ykTj6TOYn">
    <mxGraphModel>
      <root>
        <mxCell id="0" />
        <mxCell id="1" parent="0" />
      </root>
    </mxGraphModel>
  </diagram>
</mxfile>
